<svg width="125" height="40" fill="none" xmlns="http://www.w3.org/2000/svg"><path fill-rule="evenodd" clip-rule="evenodd" d="M90.626 10 88.75 6.561l1.876-3.436h3.751l1.873 3.436L94.375 10h-3.75M85 20l-1.875-3.438L85 13.126h3.75l1.875 3.438L88.75 20H85M113.751 10l-1.876-3.44 1.876-3.435h3.751l1.873 3.435-1.874 3.44h-3.75M119.375 20l-1.875-3.437 1.875-3.438h3.75L125 16.563 123.124 20h-3.749M96.25 40l-1.875-3.437 1.874-3.438H100l1.876 3.438L99.999 40h-3.75M108.124 40l-1.874-3.437 1.874-3.438h3.75l1.876 3.438L111.874 40h-3.75M101.875 16.875 100 13.437 101.875 10h3.751l1.874 3.437-1.874 3.438h-3.749M96.25 26.875l-1.875-3.439L96.249 20H100l1.876 3.436-1.876 3.439h-3.75M108.124 26.875l-1.874-3.439L108.124 20h3.75l1.876 3.436-1.876 3.439h-3.75" fill="#9E9F9E"/><path fill-rule="evenodd" clip-rule="evenodd" d="m90.626 16.875-1.876-3.438L90.626 10h3.751l1.873 3.437-1.875 3.438h-3.75M101.875 10 100 6.561l1.875-3.436h3.752l1.873 3.436L105.627 10h-3.75M90.626 29.998l-1.876-3.436 1.876-3.437h3.751l1.873 3.438L94.375 30h-3.75M113.751 16.875l-1.876-3.438L113.751 10h3.751l1.873 3.437-1.874 3.438h-3.75M101.875 36.875 100 33.436 101.875 30h3.751l1.874 3.436-1.874 3.439h-3.749M113.751 30l-1.876-3.437 1.876-3.438h3.751l1.873 3.438L117.501 30h-3.75" fill="#6CB644"/><path fill-rule="evenodd" clip-rule="evenodd" d="m96.25 6.875-1.875-3.437L96.249 0H100l1.876 3.438-1.876 3.437h-3.75M108.124 6.875l-1.874-3.436L108.124 0h3.75l1.876 3.439-1.876 3.436h-3.75M85 26.875l-1.875-3.438L85.001 20h3.75l1.874 3.437-1.875 3.438H85M90.626 36.875l-1.876-3.439L90.626 30h3.751l1.873 3.436-1.875 3.439h-3.75M119.375 26.875l-1.875-3.439L119.375 20h3.75L125 23.436l-1.876 3.439h-3.749M113.751 36.875l-1.876-3.439L113.751 30h3.751l1.873 3.436-1.874 3.439h-3.75M100 20h-3.75l-1.875-3.437 1.874-3.438H100l1.876 3.438L99.999 20M111.874 20h-3.75l-1.874-3.437 1.874-3.438h3.75l1.876 3.438L111.874 20M101.875 30 100 26.563l1.875-3.438h3.751l1.874 3.438L105.626 30h-3.749" fill="#ABCC3A"/><path fill-rule="evenodd" clip-rule="evenodd" d="M100 13.75h-3.75l-1.875-3.437 1.874-3.438H100l1.876 3.438-1.876 3.437M90.626 23.125l-1.876-3.437 1.876-3.438h3.751l1.873 3.438-1.875 3.437h-3.75M111.874 13.75h-3.75l-1.874-3.436 1.188-2.182.687-1.257h3.749l1.876 3.439-1.876 3.436M100 33.125h-3.75l-1.875-3.436 1.874-3.439H100l1.876 3.439-1.876 3.436M113.751 23.125l-1.876-3.438 1.876-3.437h3.751l1.873 3.437-1.874 3.438h-3.75M111.874 33.125h-3.75l-1.874-3.436 1.874-3.439h3.75l1.876 3.439-1.876 3.436" fill="#EAE522"/><path fill-rule="evenodd" clip-rule="evenodd" d="M8.45 15.625V8.251h-6.9v7.374H0v-15h1.55v6.243h6.9V.625H10v15H8.45M24.073 15.625V2.93l-3.879 8.358a3.803 3.803 0 0 0-.359 1.593v1.362h-1.573V12.88a3.881 3.881 0 0 0-.354-1.592l-3.92-8.359v12.695H12.5v-15h1.908l4.696 9.784L23.717.625h1.908v15h-1.552M30.625 15.625v-15H32.2v13.618h5.925v1.382h-7.5M45.993 9.781h-3.388a1.363 1.363 0 0 0-1.008.294l-.384.335a.986.986 0 0 0-.383.754v1.174a.92.92 0 0 0 .363.733l.464.399c.278.195.613.284.948.25h3.388V9.781ZM46.719 15h-4.538a2.299 2.299 0 0 1-1.593-.585l-.545-.525a1.882 1.882 0 0 1-.666-1.53v-1.216a1.884 1.884 0 0 1 .666-1.53l.604-.566a2.266 2.266 0 0 1 1.613-.544h3.731V7.455a1.291 1.291 0 0 0-.523-.986l-.341-.314a1.535 1.535 0 0 0-1.295-.503h-3.407V4.377h3.978a2.11 2.11 0 0 1 1.513.545l.826.754c.525.376.811 1.018.75 1.677v6.79l-.773.856ZM56.014 15V8.234a1.9 1.9 0 0 0-.719-1.55l-.42-.397a1.893 1.893 0 0 0-1.46-.587h-2.56V15h-1.48V5.24l.76-.859h4a1.978 1.978 0 0 1 1.52.544l1.283 1.215c.378.311.587.796.56 1.299V15h-1.48M66.572 6.323h-2.899a2.206 2.206 0 0 0-1.511.482l-.567.42c-.446.36-.689.914-.651 1.486v3.206a1.76 1.76 0 0 0 .65 1.486l.568.42c.427.343.965.514 1.511.482h2.897l.002-7.982Zm.755 9.302h-4.344c-.7.002-1.374-.26-1.89-.733l-1.049-.86a2.112 2.112 0 0 1-.65-1.821V8.418a2.115 2.115 0 0 1 .65-1.822l1.05-.859a2.731 2.731 0 0 1 1.868-.733h3.61V.625h1.553v14.142l-.798.858ZM7.533 24.08a1.52 1.52 0 0 0-.538-1.257l-.538-.482a1.936 1.936 0 0 0-1.49-.398H1.511v6.138h3.456c.53.08 1.068-.064 1.49-.398l.538-.46c.368-.317.567-.79.538-1.279V24.08Zm.21 11.543v-1.465a2.624 2.624 0 0 0-.331-1.345l-1.804-3.41H1.511v6.221H0v-14.14l.828-.859H5.38c1.511 0 1.801.46 2.877 1.403a2.06 2.06 0 0 1 .87 1.76v2.514a1.99 1.99 0 0 1-.89 1.76l-1.098.901 1.884 3.477c.25.506.371 1.069.35 1.634v1.551l-1.63-.002ZM18.453 28.513a1.72 1.72 0 0 0-.614-1.467l-.53-.413a2.023 2.023 0 0 0-1.44-.496h-.487a2.024 2.024 0 0 0-1.441.496l-.53.413a1.72 1.72 0 0 0-.593 1.467v1.098h5.635v-1.098Zm.722 2.336h-6.356v1.137a1.721 1.721 0 0 0 .593 1.467l.53.393c.403.327.916.496 1.44.476h4.005v1.303h-4.725a2.595 2.595 0 0 1-1.779-.724l-1.017-.848a2.12 2.12 0 0 1-.593-1.8V28.37a2.118 2.118 0 0 1 .593-1.8l1.017-.848A2.596 2.596 0 0 1 14.662 25h1.907a2.598 2.598 0 0 1 1.78.723l1.016.849c.48.474.707 1.139.615 1.799v1.653l-.805.825ZM28.436 26.32h-2.89a2.205 2.205 0 0 0-1.51.482l-.567.418c-.445.36-.688.913-.65 1.483v3.199c-.037.57.205 1.123.65 1.483l.567.418c.426.341.964.513 1.51.481h2.89V26.32Zm.78 12.357-.88.777c-.436.375-.999.57-1.573.544h-4.551v-1.321h3.942c.5.037.993-.146 1.346-.502l.398-.313c.329-.222.531-.587.546-.982v-1.275h-3.59c-.699 0-1.373-.26-1.887-.733l-1.048-.857a2.116 2.116 0 0 1-.65-1.82v-3.784a2.116 2.116 0 0 1 .65-1.819l1.048-.857A2.737 2.737 0 0 1 24.833 25h5.159v12.002a1.834 1.834 0 0 1-.776 1.675ZM31.924 35.625h1.779v-10.69h-1.78v10.69Zm-.049-12.373h1.875V21.25h-1.875v2.002ZM43.794 34.576l-.841.65a2.42 2.42 0 0 1-1.387.398H35.85v-1.32h5.358c.335.028.67-.06.946-.25l.355-.274c.23-.185.367-.46.378-.754v-.817c0-.69-.336-1.005-1.26-1.089l-3.783-.377c-1.618-.167-2.207-1.069-2.207-2.158v-1.132a1.555 1.555 0 0 1 .568-1.404l.84-.65c.412-.27.896-.41 1.39-.398h5.274v1.32h-4.917c-.335-.029-.67.06-.946.25l-.355.272c-.23.186-.367.46-.377.755v.65c0 .65.336.963 1.218 1.047l3.573.354c1.807.189 2.458.964 2.458 2.137v1.382a1.554 1.554 0 0 1-.568 1.403M48.942 35.619a2.543 2.543 0 0 1-1.662-.466l-.885-.73c-.548-.388-.836-1.02-.757-1.66v-9.638h1.596v2.224h3.388v1.276h-3.385v5.994c.013.437.245.843.626 1.095l.258.205c.386.33.907.485 1.425.425h1.079v1.276h-1.683M54.57 26.323v9.302h-1.445v-9.763l.744-.862h4.256v1.32H54.57M67.378 38.677l-.84.777c-.414.375-.95.57-1.498.544H60.6v-1.321h3.859c.475.036.943-.147 1.279-.502l.38-.313c.313-.222.505-.587.52-.982v-1.275H63.36a1.984 1.984 0 0 1-1.52-.545l-1.278-1.212a1.567 1.567 0 0 1-.56-1.297V25h1.48v6.754a1.895 1.895 0 0 0 .719 1.547l.42.397c.386.401.915.614 1.458.586h2.56V25h1.479v12.002a1.87 1.87 0 0 1-.743 1.672" fill="#fff"/></svg>

